<mxfile host="app.diagrams.net" agent="Mozilla/5.0 (Windows NT 10.0; Win64; x64) AppleWebKit/537.36 (KHTML, like Gecko) Chrome/129.0.0.0 Safari/537.36" version="24.7.17">
  <diagram name="Page-1" id="zB5NW5fQa41UvQrE3ezg">
    <mxGraphModel dx="1434" dy="746" grid="1" gridSize="10" guides="1" tooltips="1" connect="1" arrows="1" fold="1" page="1" pageScale="1" pageWidth="850" pageHeight="1100" math="0" shadow="0">
      <root>
        <mxCell id="0" />
        <mxCell id="1" parent="0" />
        <mxCell id="9_L5cJvmV2Hr9emINM6A-21" value="" style="rounded=0;whiteSpace=wrap;html=1;" vertex="1" parent="1">
          <mxGeometry x="60" y="380" width="620" height="120" as="geometry" />
        </mxCell>
        <mxCell id="9_L5cJvmV2Hr9emINM6A-1" value="" style="endArrow=none;html=1;rounded=0;" edge="1" parent="1">
          <mxGeometry width="50" height="50" relative="1" as="geometry">
            <mxPoint x="60" y="360" as="sourcePoint" />
            <mxPoint x="770" y="360" as="targetPoint" />
          </mxGeometry>
        </mxCell>
        <mxCell id="9_L5cJvmV2Hr9emINM6A-2" value="" style="endArrow=none;html=1;rounded=0;" edge="1" parent="1" source="9_L5cJvmV2Hr9emINM6A-27">
          <mxGeometry width="50" height="50" relative="1" as="geometry">
            <mxPoint x="140" y="730" as="sourcePoint" />
            <mxPoint x="140" y="360" as="targetPoint" />
          </mxGeometry>
        </mxCell>
        <mxCell id="9_L5cJvmV2Hr9emINM6A-3" value="" style="endArrow=none;html=1;rounded=0;" edge="1" parent="1" source="9_L5cJvmV2Hr9emINM6A-30">
          <mxGeometry width="50" height="50" relative="1" as="geometry">
            <mxPoint x="650" y="728" as="sourcePoint" />
            <mxPoint x="645" y="360" as="targetPoint" />
          </mxGeometry>
        </mxCell>
        <mxCell id="9_L5cJvmV2Hr9emINM6A-4" value="" style="endArrow=none;html=1;rounded=0;" edge="1" parent="1" source="9_L5cJvmV2Hr9emINM6A-38">
          <mxGeometry width="50" height="50" relative="1" as="geometry">
            <mxPoint x="290" y="730" as="sourcePoint" />
            <mxPoint x="290" y="360" as="targetPoint" />
          </mxGeometry>
        </mxCell>
        <mxCell id="9_L5cJvmV2Hr9emINM6A-5" value="User" style="text;html=1;align=center;verticalAlign=middle;resizable=0;points=[];autosize=1;strokeColor=none;fillColor=none;" vertex="1" parent="1">
          <mxGeometry x="115" y="330" width="50" height="30" as="geometry" />
        </mxCell>
        <mxCell id="9_L5cJvmV2Hr9emINM6A-6" value="Search Bar" style="text;html=1;align=center;verticalAlign=middle;resizable=0;points=[];autosize=1;strokeColor=none;fillColor=none;" vertex="1" parent="1">
          <mxGeometry x="250" y="330" width="80" height="30" as="geometry" />
        </mxCell>
        <mxCell id="9_L5cJvmV2Hr9emINM6A-7" value="Database" style="text;html=1;align=center;verticalAlign=middle;resizable=0;points=[];autosize=1;strokeColor=none;fillColor=none;" vertex="1" parent="1">
          <mxGeometry x="610" y="330" width="70" height="30" as="geometry" />
        </mxCell>
        <mxCell id="9_L5cJvmV2Hr9emINM6A-10" value="" style="endArrow=classic;html=1;rounded=0;" edge="1" parent="1">
          <mxGeometry width="50" height="50" relative="1" as="geometry">
            <mxPoint x="140" y="535" as="sourcePoint" />
            <mxPoint x="290" y="535" as="targetPoint" />
          </mxGeometry>
        </mxCell>
        <mxCell id="9_L5cJvmV2Hr9emINM6A-11" value="Enters a search" style="edgeLabel;html=1;align=center;verticalAlign=middle;resizable=0;points=[];" vertex="1" connectable="0" parent="9_L5cJvmV2Hr9emINM6A-10">
          <mxGeometry x="-0.1333" relative="1" as="geometry">
            <mxPoint x="5" y="-15" as="offset" />
          </mxGeometry>
        </mxCell>
        <mxCell id="9_L5cJvmV2Hr9emINM6A-12" value="API/backend" style="text;html=1;align=center;verticalAlign=middle;resizable=0;points=[];autosize=1;strokeColor=none;fillColor=none;" vertex="1" parent="1">
          <mxGeometry x="405" y="328" width="90" height="30" as="geometry" />
        </mxCell>
        <mxCell id="9_L5cJvmV2Hr9emINM6A-13" value="" style="endArrow=none;html=1;rounded=0;" edge="1" parent="1" source="9_L5cJvmV2Hr9emINM6A-43">
          <mxGeometry width="50" height="50" relative="1" as="geometry">
            <mxPoint x="449.5" y="730" as="sourcePoint" />
            <mxPoint x="449.5" y="360" as="targetPoint" />
          </mxGeometry>
        </mxCell>
        <mxCell id="9_L5cJvmV2Hr9emINM6A-15" value="" style="endArrow=classic;html=1;rounded=0;" edge="1" parent="1">
          <mxGeometry width="50" height="50" relative="1" as="geometry">
            <mxPoint x="290" y="555" as="sourcePoint" />
            <mxPoint x="450" y="555" as="targetPoint" />
          </mxGeometry>
        </mxCell>
        <mxCell id="9_L5cJvmV2Hr9emINM6A-16" value="Searches for news stories" style="edgeLabel;html=1;align=center;verticalAlign=middle;resizable=0;points=[];" vertex="1" connectable="0" parent="9_L5cJvmV2Hr9emINM6A-15">
          <mxGeometry x="-0.1375" y="1" relative="1" as="geometry">
            <mxPoint x="11" y="-14" as="offset" />
          </mxGeometry>
        </mxCell>
        <mxCell id="9_L5cJvmV2Hr9emINM6A-17" value="" style="endArrow=classic;html=1;rounded=0;" edge="1" parent="1">
          <mxGeometry width="50" height="50" relative="1" as="geometry">
            <mxPoint x="455" y="564.5" as="sourcePoint" />
            <mxPoint x="645" y="564.5" as="targetPoint" />
          </mxGeometry>
        </mxCell>
        <mxCell id="9_L5cJvmV2Hr9emINM6A-19" value="Search is stored in database" style="edgeLabel;html=1;align=center;verticalAlign=middle;resizable=0;points=[];" vertex="1" connectable="0" parent="9_L5cJvmV2Hr9emINM6A-17">
          <mxGeometry x="0.7217" relative="1" as="geometry">
            <mxPoint x="-72" y="-15" as="offset" />
          </mxGeometry>
        </mxCell>
        <mxCell id="9_L5cJvmV2Hr9emINM6A-22" value="" style="shape=card;whiteSpace=wrap;html=1;rotation=-180;" vertex="1" parent="1">
          <mxGeometry x="60" y="380" width="70" height="60" as="geometry" />
        </mxCell>
        <mxCell id="9_L5cJvmV2Hr9emINM6A-23" value="OPT" style="text;html=1;align=center;verticalAlign=middle;resizable=0;points=[];autosize=1;strokeColor=none;fillColor=none;" vertex="1" parent="1">
          <mxGeometry x="65" y="395" width="50" height="30" as="geometry" />
        </mxCell>
        <mxCell id="9_L5cJvmV2Hr9emINM6A-24" value="" style="endArrow=classic;html=1;rounded=0;" edge="1" parent="1">
          <mxGeometry width="50" height="50" relative="1" as="geometry">
            <mxPoint x="140" y="410" as="sourcePoint" />
            <mxPoint x="640" y="410" as="targetPoint" />
          </mxGeometry>
        </mxCell>
        <mxCell id="9_L5cJvmV2Hr9emINM6A-25" value="recall previous search" style="edgeLabel;html=1;align=center;verticalAlign=middle;resizable=0;points=[];" vertex="1" connectable="0" parent="9_L5cJvmV2Hr9emINM6A-24">
          <mxGeometry x="0.3961" y="1" relative="1" as="geometry">
            <mxPoint x="14" y="-9" as="offset" />
          </mxGeometry>
        </mxCell>
        <mxCell id="9_L5cJvmV2Hr9emINM6A-26" value="return the previous search" style="html=1;verticalAlign=bottom;endArrow=open;dashed=1;endSize=8;curved=0;rounded=0;" edge="1" parent="1">
          <mxGeometry relative="1" as="geometry">
            <mxPoint x="650" y="480" as="sourcePoint" />
            <mxPoint x="140" y="480" as="targetPoint" />
          </mxGeometry>
        </mxCell>
        <mxCell id="9_L5cJvmV2Hr9emINM6A-28" value="" style="endArrow=none;html=1;rounded=0;" edge="1" parent="1" target="9_L5cJvmV2Hr9emINM6A-27">
          <mxGeometry width="50" height="50" relative="1" as="geometry">
            <mxPoint x="140" y="670" as="sourcePoint" />
            <mxPoint x="140" y="360" as="targetPoint" />
          </mxGeometry>
        </mxCell>
        <mxCell id="9_L5cJvmV2Hr9emINM6A-27" value="" style="rounded=0;whiteSpace=wrap;html=1;" vertex="1" parent="1">
          <mxGeometry x="135" y="370" width="10" height="260" as="geometry" />
        </mxCell>
        <mxCell id="9_L5cJvmV2Hr9emINM6A-29" value="" style="rounded=0;whiteSpace=wrap;html=1;fillColor=#000000;" vertex="1" parent="1">
          <mxGeometry x="135" y="410" width="10" height="70" as="geometry" />
        </mxCell>
        <mxCell id="9_L5cJvmV2Hr9emINM6A-37" value="" style="endArrow=none;html=1;rounded=0;" edge="1" parent="1" target="9_L5cJvmV2Hr9emINM6A-30">
          <mxGeometry width="50" height="50" relative="1" as="geometry">
            <mxPoint x="645" y="640" as="sourcePoint" />
            <mxPoint x="650" y="358" as="targetPoint" />
          </mxGeometry>
        </mxCell>
        <mxCell id="9_L5cJvmV2Hr9emINM6A-30" value="" style="rounded=0;whiteSpace=wrap;html=1;" vertex="1" parent="1">
          <mxGeometry x="640" y="415" width="10" height="60" as="geometry" />
        </mxCell>
        <mxCell id="9_L5cJvmV2Hr9emINM6A-39" value="" style="endArrow=none;html=1;rounded=0;" edge="1" parent="1" target="9_L5cJvmV2Hr9emINM6A-38">
          <mxGeometry width="50" height="50" relative="1" as="geometry">
            <mxPoint x="290" y="670" as="sourcePoint" />
            <mxPoint x="290" y="360" as="targetPoint" />
          </mxGeometry>
        </mxCell>
        <mxCell id="9_L5cJvmV2Hr9emINM6A-38" value="" style="rounded=0;whiteSpace=wrap;html=1;" vertex="1" parent="1">
          <mxGeometry x="285" y="540" width="10" height="20" as="geometry" />
        </mxCell>
        <mxCell id="9_L5cJvmV2Hr9emINM6A-41" value="" style="endArrow=none;html=1;rounded=0;" edge="1" parent="1">
          <mxGeometry width="50" height="50" relative="1" as="geometry">
            <mxPoint x="645" y="670" as="sourcePoint" />
            <mxPoint x="644.671875" y="630" as="targetPoint" />
          </mxGeometry>
        </mxCell>
        <mxCell id="9_L5cJvmV2Hr9emINM6A-42" value="return the url&#39;s" style="html=1;verticalAlign=bottom;endArrow=open;dashed=1;endSize=8;curved=0;rounded=0;" edge="1" parent="1">
          <mxGeometry relative="1" as="geometry">
            <mxPoint x="450" y="630" as="sourcePoint" />
            <mxPoint x="140" y="633" as="targetPoint" />
          </mxGeometry>
        </mxCell>
        <mxCell id="9_L5cJvmV2Hr9emINM6A-44" value="" style="endArrow=none;html=1;rounded=0;" edge="1" parent="1" target="9_L5cJvmV2Hr9emINM6A-43">
          <mxGeometry width="50" height="50" relative="1" as="geometry">
            <mxPoint x="450" y="670" as="sourcePoint" />
            <mxPoint x="449.5" y="360" as="targetPoint" />
          </mxGeometry>
        </mxCell>
        <mxCell id="9_L5cJvmV2Hr9emINM6A-43" value="" style="rounded=0;whiteSpace=wrap;html=1;" vertex="1" parent="1">
          <mxGeometry x="445" y="560" width="10" height="60" as="geometry" />
        </mxCell>
        <mxCell id="9_L5cJvmV2Hr9emINM6A-45" value="" style="rounded=0;whiteSpace=wrap;html=1;fillColor=#000000;" vertex="1" parent="1">
          <mxGeometry x="135" y="540" width="10" height="80" as="geometry" />
        </mxCell>
        <mxCell id="9_L5cJvmV2Hr9emINM6A-46" value="" style="rounded=0;whiteSpace=wrap;html=1;fillColor=#000000;" vertex="1" parent="1">
          <mxGeometry x="445" y="560" width="10" height="10" as="geometry" />
        </mxCell>
      </root>
    </mxGraphModel>
  </diagram>
</mxfile>
